<svg xmlns="http://www.w3.org/2000/svg" width="184" height="184" viewBox="0 0 184.1 184.1" class="undefined"><path d="M182.2 54.8c-1.7-1.3-4-1.2-5.6 0l-48.5 37L96.3 20c-1.5-3.4-7.1-3.4-8.6 0l-32.2 72.7L7.6 54.9c-1.7-1.3-4-1.3-5.7-0.1 -1.7 1.3-2.3 3.5-1.6 5.4l33.4 86.2c0.7 1.8 2.4 3 4.4 3h108c1.9 0 3.7-1.2 4.4-3l33.4-86.2C184.5 58.3 183.9 56.1 182.2 54.8zM142.9 140.1h-101.6L15.2 72.8l39.4 30.9c1.1 0.9 2.6 1.2 4 0.9 1.4-0.3 2.6-1.3 3.2-2.6l30.3-68.5 29.9 67.6c0.6 1.3 1.7 2.3 3.1 2.6 1.4 0.4 2.9 0.1 4-0.8l40-30.5L142.9 140.1zM150.2 162c0 2.6-2.1 4.7-4.7 4.7H38.5c-2.6 0-4.7-2.1-4.7-4.7s2.1-4.7 4.7-4.7h107C148.2 157.3 150.2 159.4 150.2 162z" class="skills__icon"/></svg>