<svg xmlns="http://www.w3.org/2000/svg" viewBox="0 0 448 448"><path d="M416 40H32C14.4 40 0 54.4 0 72v304c0 17.6 14.4 32 32 32h384c17.6 0 32-14.4 32-32V72C448 54.4 433.6 40 416 40zM432 376c0 9.6-6.4 16-16 16H32c-9.6 0-16-6.4-16-16V136h416V376zM432 120H16V72c0-9.6 6.4-16 16-16h384c9.6 0 16 6.4 16 16V120z"/><circle cx="176" cy="88" r="16"/><circle cx="112" cy="88" r="16"/><circle cx="48" cy="88" r="16"/><rect x="272" y="232" width="112" height="16"/><rect x="272" y="280" width="112" height="16"/><rect x="272" y="328" width="64" height="16"/><polygon points="258.6 174.9 144 289.4 107.2 252.5 95.9 263.8 144 312 208 248 208 328 80 328 80 200 208 200 224 184 64 184 64 344 224 344 224 232 269.9 186.2 " class="skills__icon"/></svg>