<?xml version="1.0" encoding="iso-8859-1"?>
<!-- Generator: Adobe Illustrator 19.0.0, SVG Export Plug-In . SVG Version: 6.00 Build 0)  -->
<svg version="1.1" id="Capa_1" xmlns="http://www.w3.org/2000/svg" xmlns:xlink="http://www.w3.org/1999/xlink" x="0px" y="0px"
	 viewBox="0 0 448 448" style="enable-background:new 0 0 448 448;" xml:space="preserve">
<g>
	<g>
		<path d="M416,40H32C14.398,40,0,54.398,0,72v304c0,17.6,14.398,32,32,32h384c17.602,0,32-14.4,32-32V72
			C448,54.398,433.602,40,416,40z M432,376c0,9.6-6.398,16-16,16H32c-9.602,0-16-6.4-16-16V136h416V376z M432,120H16V72
			c0-9.602,6.398-16,16-16h384c9.602,0,16,6.398,16,16V120z"/>
	</g>
</g>
<g>
	<g>
		<circle cx="176" cy="88" r="16"/>
	</g>
</g>
<g>
	<g>
		<circle cx="112" cy="88" r="16"/>
	</g>
</g>
<g>
	<g>
		<circle cx="48" cy="88" r="16"/>
	</g>
</g>
<g>
	<g>
		<rect x="272" y="232" width="112" height="16"/>
	</g>
</g>
<g>
	<g>
		<rect x="272" y="280" width="112" height="16"/>
	</g>
</g>
<g>
	<g>
		<rect x="272" y="328" width="64" height="16"/>
	</g>
</g>
<g>
	<g>
		<polygon points="258.554,174.873 144.047,289.38 107.18,252.509 95.867,263.823 144.039,312 208,248.047 208,328 80,328 80,200 
			208,200 224,184 64,184 64,344 224,344 224,232.049 269.867,186.187 		"/>
	</g>
</g>
<g>
</g>
<g>
</g>
<g>
</g>
<g>
</g>
<g>
</g>
<g>
</g>
<g>
</g>
<g>
</g>
<g>
</g>
<g>
</g>
<g>
</g>
<g>
</g>
<g>
</g>
<g>
</g>
<g>
</g>
</svg>
