<svg xmlns="http://www.w3.org/2000/svg" viewBox="0 0 325 325"><path d="M322.5 12.2c-1.1-1.2-3.2-2.5-6.5-2.5 -4.2 0-17.1 0-96.1 67.5 -32.9 28.1-70.3 62.2-102 92.8 0 0 0 0-0.1 0.1 0 0 0 0 0 0.1 -9.2 8.9-17.9 17.4-25.8 25.4 -49.3 6-55.7 37.6-60.8 63 -4.4 21.8-7.6 33.3-25.6 34.7 -2.8 0.2-5 2.3-5.4 5.1 -0.4 2.7 1.1 5.5 3.6 6.5 1 0.4 25.3 10.5 53.8 10.5 0 0 0 0 0 0 31.2 0 70.9-12.3 83.8-69.8 37.5-38.1 85.3-91.2 122.2-135.9 20.3-24.6 35.9-44.8 46.4-60.2C324.7 27.6 328.1 17.8 322.5 12.2zM122 182.7l32 32.4c-6.3 6.6-12.4 13-18.3 19l-32.5-32.9C109.1 195.3 115.4 189.1 122 182.7zM57.5 303.4c0 0 0 0 0 0 -12.1 0-23.5-2.2-32.3-4.4 11.8-8.5 14.9-24 17.8-38.1 5-24.8 9.8-48.2 49.7-53.4l36.6 37.1C119.9 283.5 95.8 303.4 57.5 303.4zM249.2 108.1c-26.4 31.6-58 67.3-87 98.2l-31.6-32c30.5-29.3 65.8-61.3 97-88 54.2-46.3 75.8-59.5 83.9-63.2C307.9 31.3 295 53.1 249.2 108.1z" class="skills__icon"/></svg>